<svg width="25" height="25" viewBox="0 0 25 25" fill="none" xmlns="http://www.w3.org/2000/svg">
<mask id="mask0_1476_284" style="mask-type:alpha" maskUnits="userSpaceOnUse" x="0" y="0" width="25" height="25">
<rect x="0.570312" y="0.5" width="24" height="24" fill="#D9D9D9"/>
</mask>
<g mask="url(#mask0_1476_284)">
<path d="M15.8703 17.2L17.2703 15.8L13.5703 12.1V7.5H11.5703V12.9L15.8703 17.2ZM12.5703 22.5C11.187 22.5 9.88698 22.2373 8.67031 21.712C7.45365 21.1873 6.39531 20.475 5.49531 19.575C4.59531 18.675 3.88298 17.6167 3.35831 16.4C2.83298 15.1833 2.57031 13.8833 2.57031 12.5C2.57031 11.1167 2.83298 9.81667 3.35831 8.6C3.88298 7.38333 4.59531 6.325 5.49531 5.425C6.39531 4.525 7.45365 3.81233 8.67031 3.287C9.88698 2.76233 11.187 2.5 12.5703 2.5C13.9536 2.5 15.2536 2.76233 16.4703 3.287C17.687 3.81233 18.7453 4.525 19.6453 5.425C20.5453 6.325 21.2576 7.38333 21.7823 8.6C22.3076 9.81667 22.5703 11.1167 22.5703 12.5C22.5703 13.8833 22.3076 15.1833 21.7823 16.4C21.2576 17.6167 20.5453 18.675 19.6453 19.575C18.7453 20.475 17.687 21.1873 16.4703 21.712C15.2536 22.2373 13.9536 22.5 12.5703 22.5Z" fill="white"/>
</g>
</svg>
