<svg width="25" height="25" viewBox="0 0 25 25" fill="none" xmlns="http://www.w3.org/2000/svg">
<mask id="mask0_1476_268" style="mask-type:alpha" maskUnits="userSpaceOnUse" x="0" y="0" width="25" height="25">
<rect x="0.570312" y="0.5" width="24" height="24" fill="#D9D9D9"/>
</mask>
<g mask="url(#mask0_1476_268)">
<path d="M13.5703 20.5C13.5703 18.9833 13.2826 17.5583 12.7073 16.225C12.1326 14.8917 11.3453 13.725 10.3453 12.725C9.34531 11.725 8.17865 10.9377 6.84531 10.363C5.51198 9.78767 4.08698 9.5 2.57031 9.5V6.5C2.57031 5.95 2.76631 5.47933 3.15831 5.088C3.54965 4.696 4.02031 4.5 4.57031 4.5H20.5703C21.1203 4.5 21.5913 4.696 21.9833 5.088C22.3746 5.47933 22.5703 5.95 22.5703 6.5V18.5C22.5703 19.05 22.3746 19.521 21.9833 19.913C21.5913 20.3043 21.1203 20.5 20.5703 20.5H13.5703ZM9.57031 20.5C9.57031 18.55 8.89131 16.8957 7.53331 15.537C6.17465 14.179 4.52031 13.5 2.57031 13.5V11.5C3.82031 11.5 4.99131 11.7373 6.08331 12.212C7.17465 12.6873 8.12465 13.329 8.93331 14.137C9.74131 14.9457 10.383 15.896 10.8583 16.988C11.333 18.0793 11.5703 19.25 11.5703 20.5H9.57031ZM5.57031 20.5C5.57031 19.6667 5.27865 18.9583 4.69531 18.375C4.11198 17.7917 3.40365 17.5 2.57031 17.5V15.5C3.95365 15.5 5.13265 15.9873 6.10731 16.962C7.08265 17.9373 7.57031 19.1167 7.57031 20.5H5.57031ZM15.3203 12.3L19.3203 10L15.3203 7.7L11.3203 10L15.3203 12.3ZM15.3203 15.35L18.0703 13.75V11.65L15.3203 13.25L12.5703 11.65V13.75L15.3203 15.35Z" fill="white"/>
</g>
</svg>
