<svg width="25" height="25" viewBox="0 0 25 25" fill="none" xmlns="http://www.w3.org/2000/svg">
<mask id="mask0_1476_302" style="mask-type:alpha" maskUnits="userSpaceOnUse" x="0" y="0" width="25" height="25">
<rect x="0.500488" y="0.0722656" width="24" height="24" fill="#D9D9D9"/>
</mask>
<g mask="url(#mask0_1476_302)">
<path d="M0.500488 18.0723V16.4973C0.500488 15.7806 0.867155 15.1973 1.60049 14.7473C2.33382 14.2973 3.30049 14.0723 4.50049 14.0723C4.71715 14.0723 4.92549 14.0763 5.12549 14.0843C5.32549 14.0929 5.51715 14.1139 5.70049 14.1473C5.46715 14.4973 5.29216 14.8639 5.17549 15.2473C5.05882 15.6306 5.00049 16.0306 5.00049 16.4473V18.0723H0.500488ZM6.50049 18.0723V16.4473C6.50049 15.9139 6.64649 15.4263 6.93849 14.9843C7.22982 14.5429 7.64216 14.1556 8.17549 13.8223C8.70882 13.4889 9.34649 13.2389 10.0885 13.0723C10.8298 12.9056 11.6338 12.8223 12.5005 12.8223C13.3838 12.8223 14.1965 12.9056 14.9385 13.0723C15.6798 13.2389 16.3172 13.4889 16.8505 13.8223C17.3838 14.1556 17.7922 14.5429 18.0755 14.9843C18.3588 15.4263 18.5005 15.9139 18.5005 16.4473V18.0723H6.50049ZM20.0005 18.0723V16.4473C20.0005 16.0139 19.9462 15.6056 19.8375 15.2223C19.7295 14.8389 19.5672 14.4806 19.3505 14.1473C19.5338 14.1139 19.7215 14.0929 19.9135 14.0843C20.1048 14.0763 20.3005 14.0723 20.5005 14.0723C21.7005 14.0723 22.6672 14.2929 23.4005 14.7343C24.1338 15.1763 24.5005 15.7639 24.5005 16.4973V18.0723H20.0005ZM4.50049 13.0723C3.95049 13.0723 3.47982 12.8763 3.08849 12.4843C2.69649 12.0929 2.50049 11.6223 2.50049 11.0723C2.50049 10.5056 2.69649 10.0306 3.08849 9.64727C3.47982 9.26393 3.95049 9.07227 4.50049 9.07227C5.06715 9.07227 5.54216 9.26393 5.92549 9.64727C6.30882 10.0306 6.50049 10.5056 6.50049 11.0723C6.50049 11.6223 6.30882 12.0929 5.92549 12.4843C5.54216 12.8763 5.06715 13.0723 4.50049 13.0723ZM20.5005 13.0723C19.9505 13.0723 19.4795 12.8763 19.0875 12.4843C18.6962 12.0929 18.5005 11.6223 18.5005 11.0723C18.5005 10.5056 18.6962 10.0306 19.0875 9.64727C19.4795 9.26393 19.9505 9.07227 20.5005 9.07227C21.0672 9.07227 21.5422 9.26393 21.9255 9.64727C22.3088 10.0306 22.5005 10.5056 22.5005 11.0723C22.5005 11.6223 22.3088 12.0929 21.9255 12.4843C21.5422 12.8763 21.0672 13.0723 20.5005 13.0723ZM12.5005 12.0723C11.6672 12.0723 10.9588 11.7806 10.3755 11.1973C9.79216 10.6139 9.50049 9.9056 9.50049 9.07227C9.50049 8.22227 9.79216 7.5096 10.3755 6.93427C10.9588 6.3596 11.6672 6.07227 12.5005 6.07227C13.3505 6.07227 14.0628 6.3596 14.6375 6.93427C15.2128 7.5096 15.5005 8.22227 15.5005 9.07227C15.5005 9.9056 15.2128 10.6139 14.6375 11.1973C14.0628 11.7806 13.3505 12.0723 12.5005 12.0723Z" fill="white"/>
</g>
</svg>
